<svg width="1010" height="639" viewBox="0 0 1010 639" fill="none" xmlns="http://www.w3.org/2000/svg">
<path d="M438.156 64.0478H11.934C6.97602 64.0478 2.95182 68.0575 2.93405 73.0155L1.01249 609.151C1.00445 611.393 1.83351 613.558 3.33736 615.22L21.259 635.037C22.9653 636.924 25.3903 638 27.9341 638H609.161C612.069 638 614.799 636.594 616.488 634.226L647.806 590.321C649.495 587.953 652.225 586.547 655.133 586.547H1000C1004.97 586.547 1009 582.518 1009 577.547V45.9493C1009 43.6132 1008.09 41.3687 1006.47 39.6901L971.673 3.74084C969.978 1.98903 967.644 1 965.206 1H493.197C490.318 1 487.613 2.37699 485.919 4.70459L445.433 60.3432C443.739 62.6708 441.034 64.0478 438.156 64.0478Z" fill="#0B1E3A" stroke="#0F5A9F" stroke-width="2"/>
</svg>
