<svg width="1010" height="639" viewBox="0 0 1010 639" fill="none" xmlns="http://www.w3.org/2000/svg">
<path d="M438.156 64.0478H11.934C6.97602 64.0478 2.95182 68.0575 2.93405 73.0155L1.01249 609.151C1.00445 611.393 1.83351 613.558 3.33736 615.22L21.259 635.037C22.9653 636.924 25.3903 638 27.9341 638H609.161C612.069 638 614.799 636.594 616.488 634.226L647.806 590.321C649.495 587.953 652.225 586.547 655.133 586.547H1000C1004.97 586.547 1009 582.518 1009 577.547V45.9493C1009 43.6132 1008.09 41.3687 1006.47 39.6901L971.673 3.74084C969.978 1.98903 967.644 1 965.206 1H493.197C490.318 1 487.613 2.37699 485.919 4.70459L445.433 60.3432C443.739 62.6708 441.034 64.0478 438.156 64.0478Z" fill="#0B1E3A" stroke="#0F5A9F" stroke-width="2"/>
<path d="M2 12L8.5 4H186L156.5 42H2V12Z" fill="#0B2242"/>
<path d="M198.5 3H190.5L158.5 42.5H167L198.5 3Z" fill="#0B2242"/>
<path d="M209.5 3H201.5L169.5 42.5H178L209.5 3Z" fill="#0B2242"/>
<path d="M220.5 3H212.5L180.5 42.5H189L220.5 3Z" fill="#0B2242"/>
<path d="M231.5 3H223.5L191.5 42.5H200L231.5 3Z" fill="#0B2242"/>
<path d="M242.5 3H234.5L202.5 42.5H211L242.5 3Z" fill="#0B2242"/>
<path d="M253.5 3H245.5L213.5 42.5H222L253.5 3Z" fill="#0B2242"/>
<path d="M264.5 3H256.5L224.5 42.5H233L264.5 3Z" fill="#0B2242"/>
<path d="M275.5 3H267.5L235.5 42.5H244L275.5 3Z" fill="#0B2242"/>
<path d="M286.5 3H278.5L246.5 42.5H255L286.5 3Z" fill="#0B2242"/>
<path d="M297.5 3H289.5L257.5 42.5H266L297.5 3Z" fill="#0B2242"/>
<path d="M308.5 3H300.5L268.5 42.5H277L308.5 3Z" fill="#0B2242"/>
<path d="M319.5 3H311.5L279.5 42.5H288L319.5 3Z" fill="#0B2242"/>
<path d="M330.5 3H322.5L290.5 42.5H299L330.5 3Z" fill="#0B2242"/>
<path d="M341.5 3H333.5L301.5 42.5H310L341.5 3Z" fill="#0B2242"/>
<path d="M352.5 3H344.5L312.5 42.5H321L352.5 3Z" fill="#0B2242"/>
<path d="M363 3H355L323 42.5H331.5L363 3Z" fill="#0B2242"/>
<path d="M373.5 3H365.5L333.5 42.5H342L373.5 3Z" fill="#0B2242"/>
<path d="M384.5 3H376.5L344.5 42.5H353L384.5 3Z" fill="#0B2242"/>
<path d="M396 3H388L356 42.5H364.5L396 3Z" fill="#0B2242"/>
<path d="M408 3H400L368 42.5H376.5L408 3Z" fill="#0B2242"/>
<path d="M419.5 3H411.5L379.5 42.5H388L419.5 3Z" fill="#0B2242"/>
<path d="M431 3H423L391 42.5H399.5L431 3Z" fill="#0B2242"/>
<path d="M2 12L8.5 4H186L156.5 42H2V12Z" stroke="url(#paint0_linear_0_1)" stroke-width="0.5"/>
<path d="M198.5 3H190.5L158.5 42.5H167L198.5 3Z" stroke="url(#paint1_linear_0_1)" stroke-width="0.5"/>
<path d="M209.5 3H201.5L169.5 42.5H178L209.5 3Z" stroke="url(#paint2_linear_0_1)" stroke-width="0.5"/>
<path d="M220.5 3H212.5L180.5 42.5H189L220.5 3Z" stroke="url(#paint3_linear_0_1)" stroke-width="0.5"/>
<path d="M231.5 3H223.5L191.5 42.5H200L231.5 3Z" stroke="url(#paint4_linear_0_1)" stroke-width="0.5"/>
<path d="M242.5 3H234.5L202.5 42.5H211L242.5 3Z" stroke="url(#paint5_linear_0_1)" stroke-width="0.5"/>
<path d="M253.5 3H245.5L213.5 42.5H222L253.5 3Z" stroke="url(#paint6_linear_0_1)" stroke-width="0.5"/>
<path d="M264.5 3H256.5L224.5 42.5H233L264.5 3Z" stroke="url(#paint7_linear_0_1)" stroke-width="0.5"/>
<path d="M275.5 3H267.5L235.5 42.5H244L275.5 3Z" stroke="url(#paint8_linear_0_1)" stroke-width="0.5"/>
<path d="M286.5 3H278.5L246.5 42.5H255L286.5 3Z" stroke="url(#paint9_linear_0_1)" stroke-width="0.5"/>
<path d="M297.5 3H289.5L257.5 42.5H266L297.5 3Z" stroke="url(#paint10_linear_0_1)" stroke-width="0.5"/>
<path d="M308.5 3H300.5L268.5 42.5H277L308.5 3Z" stroke="url(#paint11_linear_0_1)" stroke-width="0.5"/>
<path d="M319.5 3H311.5L279.5 42.5H288L319.5 3Z" stroke="url(#paint12_linear_0_1)" stroke-width="0.5"/>
<path d="M330.5 3H322.5L290.5 42.5H299L330.5 3Z" stroke="url(#paint13_linear_0_1)" stroke-width="0.5"/>
<path d="M341.5 3H333.5L301.5 42.5H310L341.5 3Z" stroke="url(#paint14_linear_0_1)" stroke-width="0.5"/>
<path d="M352.5 3H344.5L312.5 42.5H321L352.5 3Z" stroke="url(#paint15_linear_0_1)" stroke-width="0.5"/>
<path d="M363 3H355L323 42.5H331.5L363 3Z" stroke="url(#paint16_linear_0_1)" stroke-width="0.5"/>
<path d="M373.5 3H365.5L333.5 42.5H342L373.5 3Z" stroke="url(#paint17_linear_0_1)" stroke-width="0.5"/>
<path d="M384.5 3H376.5L344.5 42.5H353L384.5 3Z" stroke="url(#paint18_linear_0_1)" stroke-width="0.5"/>
<path d="M396 3H388L356 42.5H364.5L396 3Z" stroke="url(#paint19_linear_0_1)" stroke-width="0.5"/>
<path d="M408 3H400L368 42.5H376.5L408 3Z" stroke="url(#paint20_linear_0_1)" stroke-width="0.5"/>
<path d="M419.5 3H411.5L379.5 42.5H388L419.5 3Z" stroke="url(#paint21_linear_0_1)" stroke-width="0.5"/>
<path d="M431 3H423L391 42.5H399.5L431 3Z" stroke="url(#paint22_linear_0_1)" stroke-width="0.5"/>
<path d="M1009.5 626.5L1003 634.5H854.5L884 596.5H1009.5V626.5Z" fill="#0B2242"/>
<path d="M842 635.5H850L882 596H873.5L842 635.5Z" fill="#0B2242"/>
<path d="M831 635.5H839L871 596H862.5L831 635.5Z" fill="#0B2242"/>
<path d="M820 635.5H828L860 596H851.5L820 635.5Z" fill="#0B2242"/>
<path d="M809 635.5H817L849 596H840.5L809 635.5Z" fill="#0B2242"/>
<path d="M798 635.5H806L838 596H829.5L798 635.5Z" fill="#0B2242"/>
<path d="M787 635.5H795L827 596H818.5L787 635.5Z" fill="#0B2242"/>
<path d="M776 635.5H784L816 596H807.5L776 635.5Z" fill="#0B2242"/>
<path d="M765 635.5H773L805 596H796.5L765 635.5Z" fill="#0B2242"/>
<path d="M754 635.5H762L794 596H785.5L754 635.5Z" fill="#0B2242"/>
<path d="M743 635.5H751L783 596H774.5L743 635.5Z" fill="#0B2242"/>
<path d="M732 635.5H740L772 596H763.5L732 635.5Z" fill="#0B2242"/>
<path d="M721 635.5H729L761 596H752.5L721 635.5Z" fill="#0B2242"/>
<path d="M710 635.5H718L750 596H741.5L710 635.5Z" fill="#0B2242"/>
<path d="M699 635.5H707L739 596H730.5L699 635.5Z" fill="#0B2242"/>
<path d="M688 635.5H696L728 596H719.5L688 635.5Z" fill="#0B2242"/>
<path d="M677.5 635.5H685.5L717.5 596H709L677.5 635.5Z" fill="#0B2242"/>
<path d="M667 635.5H675L707 596H698.5L667 635.5Z" fill="#0B2242"/>
<defs>
<linearGradient id="paint0_linear_0_1" x1="216.5" y1="3" x2="216.5" y2="42.5" gradientUnits="userSpaceOnUse">
<stop stop-color="#1A83FF"/>
<stop offset="1" stop-color="#12AAFF"/>
</linearGradient>
<linearGradient id="paint1_linear_0_1" x1="216.5" y1="3" x2="216.5" y2="42.5" gradientUnits="userSpaceOnUse">
<stop stop-color="#1A83FF"/>
<stop offset="1" stop-color="#12AAFF"/>
</linearGradient>
<linearGradient id="paint2_linear_0_1" x1="216.5" y1="3" x2="216.5" y2="42.5" gradientUnits="userSpaceOnUse">
<stop stop-color="#1A83FF"/>
<stop offset="1" stop-color="#12AAFF"/>
</linearGradient>
<linearGradient id="paint3_linear_0_1" x1="216.5" y1="3" x2="216.5" y2="42.5" gradientUnits="userSpaceOnUse">
<stop stop-color="#1A83FF"/>
<stop offset="1" stop-color="#12AAFF"/>
</linearGradient>
<linearGradient id="paint4_linear_0_1" x1="216.5" y1="3" x2="216.5" y2="42.5" gradientUnits="userSpaceOnUse">
<stop stop-color="#1A83FF"/>
<stop offset="1" stop-color="#12AAFF"/>
</linearGradient>
<linearGradient id="paint5_linear_0_1" x1="216.5" y1="3" x2="216.5" y2="42.5" gradientUnits="userSpaceOnUse">
<stop stop-color="#1A83FF"/>
<stop offset="1" stop-color="#12AAFF"/>
</linearGradient>
<linearGradient id="paint6_linear_0_1" x1="216.5" y1="3" x2="216.5" y2="42.5" gradientUnits="userSpaceOnUse">
<stop stop-color="#1A83FF"/>
<stop offset="1" stop-color="#12AAFF"/>
</linearGradient>
<linearGradient id="paint7_linear_0_1" x1="216.5" y1="3" x2="216.5" y2="42.5" gradientUnits="userSpaceOnUse">
<stop stop-color="#1A83FF"/>
<stop offset="1" stop-color="#12AAFF"/>
</linearGradient>
<linearGradient id="paint8_linear_0_1" x1="216.5" y1="3" x2="216.5" y2="42.5" gradientUnits="userSpaceOnUse">
<stop stop-color="#1A83FF"/>
<stop offset="1" stop-color="#12AAFF"/>
</linearGradient>
<linearGradient id="paint9_linear_0_1" x1="216.5" y1="3" x2="216.5" y2="42.5" gradientUnits="userSpaceOnUse">
<stop stop-color="#1A83FF"/>
<stop offset="1" stop-color="#12AAFF"/>
</linearGradient>
<linearGradient id="paint10_linear_0_1" x1="216.5" y1="3" x2="216.5" y2="42.5" gradientUnits="userSpaceOnUse">
<stop stop-color="#1A83FF"/>
<stop offset="1" stop-color="#12AAFF"/>
</linearGradient>
<linearGradient id="paint11_linear_0_1" x1="216.5" y1="3" x2="216.5" y2="42.5" gradientUnits="userSpaceOnUse">
<stop stop-color="#1A83FF"/>
<stop offset="1" stop-color="#12AAFF"/>
</linearGradient>
<linearGradient id="paint12_linear_0_1" x1="216.5" y1="3" x2="216.5" y2="42.5" gradientUnits="userSpaceOnUse">
<stop stop-color="#1A83FF"/>
<stop offset="1" stop-color="#12AAFF"/>
</linearGradient>
<linearGradient id="paint13_linear_0_1" x1="216.5" y1="3" x2="216.5" y2="42.5" gradientUnits="userSpaceOnUse">
<stop stop-color="#1A83FF"/>
<stop offset="1" stop-color="#12AAFF"/>
</linearGradient>
<linearGradient id="paint14_linear_0_1" x1="216.5" y1="3" x2="216.5" y2="42.5" gradientUnits="userSpaceOnUse">
<stop stop-color="#1A83FF"/>
<stop offset="1" stop-color="#12AAFF"/>
</linearGradient>
<linearGradient id="paint15_linear_0_1" x1="216.5" y1="3" x2="216.5" y2="42.5" gradientUnits="userSpaceOnUse">
<stop stop-color="#1A83FF"/>
<stop offset="1" stop-color="#12AAFF"/>
</linearGradient>
<linearGradient id="paint16_linear_0_1" x1="216.5" y1="3" x2="216.5" y2="42.5" gradientUnits="userSpaceOnUse">
<stop stop-color="#1A83FF"/>
<stop offset="1" stop-color="#12AAFF"/>
</linearGradient>
<linearGradient id="paint17_linear_0_1" x1="216.5" y1="3" x2="216.5" y2="42.5" gradientUnits="userSpaceOnUse">
<stop stop-color="#1A83FF"/>
<stop offset="1" stop-color="#12AAFF"/>
</linearGradient>
<linearGradient id="paint18_linear_0_1" x1="216.5" y1="3" x2="216.5" y2="42.5" gradientUnits="userSpaceOnUse">
<stop stop-color="#1A83FF"/>
<stop offset="1" stop-color="#12AAFF"/>
</linearGradient>
<linearGradient id="paint19_linear_0_1" x1="216.5" y1="3" x2="216.5" y2="42.5" gradientUnits="userSpaceOnUse">
<stop stop-color="#1A83FF"/>
<stop offset="1" stop-color="#12AAFF"/>
</linearGradient>
<linearGradient id="paint20_linear_0_1" x1="216.5" y1="3" x2="216.5" y2="42.5" gradientUnits="userSpaceOnUse">
<stop stop-color="#1A83FF"/>
<stop offset="1" stop-color="#12AAFF"/>
</linearGradient>
<linearGradient id="paint21_linear_0_1" x1="216.5" y1="3" x2="216.5" y2="42.5" gradientUnits="userSpaceOnUse">
<stop stop-color="#1A83FF"/>
<stop offset="1" stop-color="#12AAFF"/>
</linearGradient>
<linearGradient id="paint22_linear_0_1" x1="216.5" y1="3" x2="216.5" y2="42.5" gradientUnits="userSpaceOnUse">
<stop stop-color="#1A83FF"/>
<stop offset="1" stop-color="#12AAFF"/>
</linearGradient>
</defs>
</svg>
