<svg width="343" height="40" viewBox="0 0 343 40" fill="none" xmlns="http://www.w3.org/2000/svg">
<path d="M342.5 30.5L336 38.5H187.5L217 0.5H342.5V30.5Z" fill="#0B2242"/>
<path d="M175 39.5H183L215 0H206.5L175 39.5Z" fill="#0B2242"/>
<path d="M164 39.5H172L204 0H195.5L164 39.5Z" fill="#0B2242"/>
<path d="M153 39.5H161L193 0H184.5L153 39.5Z" fill="#0B2242"/>
<path d="M142 39.5H150L182 0H173.5L142 39.5Z" fill="#0B2242"/>
<path d="M131 39.5H139L171 0H162.5L131 39.5Z" fill="#0B2242"/>
<path d="M120 39.5H128L160 0H151.5L120 39.5Z" fill="#0B2242"/>
<path d="M109 39.5H117L149 0H140.5L109 39.5Z" fill="#0B2242"/>
<path d="M98 39.5H106L138 0H129.5L98 39.5Z" fill="#0B2242"/>
<path d="M87 39.5H95L127 0H118.5L87 39.5Z" fill="#0B2242"/>
<path d="M76 39.5H84L116 0H107.5L76 39.5Z" fill="#0B2242"/>
<path d="M65 39.5H73L105 0H96.5L65 39.5Z" fill="#0B2242"/>
<path d="M54 39.5H62L94 0H85.5L54 39.5Z" fill="#0B2242"/>
<path d="M43 39.5H51L83 0H74.5L43 39.5Z" fill="#0B2242"/>
<path d="M32 39.5H40L72 0H63.5L32 39.5Z" fill="#0B2242"/>
</svg>
