<svg width="431" height="41" viewBox="0 0 431 41" fill="none" xmlns="http://www.w3.org/2000/svg">
<path d="M1 10L7.5 2H185L155.5 40H1V10Z" fill="#0B2242"/>
<path d="M197.5 1H189.5L157.5 40.5H166L197.5 1Z" fill="#0B2242"/>
<path d="M208.5 1H200.5L168.5 40.5H177L208.5 1Z" fill="#0B2242"/>
<path d="M219.5 1H211.5L179.5 40.5H188L219.5 1Z" fill="#0B2242"/>
<path d="M230.5 1H222.5L190.5 40.5H199L230.5 1Z" fill="#0B2242"/>
<path d="M241.5 1H233.5L201.5 40.5H210L241.5 1Z" fill="#0B2242"/>
<path d="M252.5 1H244.5L212.5 40.5H221L252.5 1Z" fill="#0B2242"/>
<path d="M263.5 1H255.5L223.5 40.5H232L263.5 1Z" fill="#0B2242"/>
<path d="M274.5 1H266.5L234.5 40.5H243L274.5 1Z" fill="#0B2242"/>
<path d="M285.5 1H277.5L245.5 40.5H254L285.5 1Z" fill="#0B2242"/>
<path d="M296.5 1H288.5L256.5 40.5H265L296.5 1Z" fill="#0B2242"/>
<path d="M307.5 1H299.5L267.5 40.5H276L307.5 1Z" fill="#0B2242"/>
<path d="M318.5 1H310.5L278.5 40.5H287L318.5 1Z" fill="#0B2242"/>
<path d="M329.5 1H321.5L289.5 40.5H298L329.5 1Z" fill="#0B2242"/>
<path d="M340.5 1H332.5L300.5 40.5H309L340.5 1Z" fill="#0B2242"/>
<path d="M351.5 1H343.5L311.5 40.5H320L351.5 1Z" fill="#0B2242"/>
<path d="M362 1H354L322 40.5H330.5L362 1Z" fill="#0B2242"/>
<path d="M372.5 1H364.5L332.5 40.5H341L372.5 1Z" fill="#0B2242"/>
<path d="M383.5 1H375.5L343.5 40.5H352L383.5 1Z" fill="#0B2242"/>
<path d="M395 1H387L355 40.5H363.5L395 1Z" fill="#0B2242"/>

<path d="M1 10L7.5 2H185L155.5 40H1V10Z" stroke="url(#paint0_linear_97_2963)" stroke-width="0.5"/>
<path d="M197.5 1H189.5L157.5 40.5H166L197.5 1Z" stroke="url(#paint1_linear_97_2963)" stroke-width="0.5"/>
<path d="M208.5 1H200.5L168.5 40.5H177L208.5 1Z" stroke="url(#paint2_linear_97_2963)" stroke-width="0.5"/>
<path d="M219.5 1H211.5L179.5 40.5H188L219.5 1Z" stroke="url(#paint3_linear_97_2963)" stroke-width="0.5"/>
<path d="M230.5 1H222.5L190.5 40.5H199L230.5 1Z" stroke="url(#paint4_linear_97_2963)" stroke-width="0.5"/>
<path d="M241.5 1H233.5L201.5 40.5H210L241.5 1Z" stroke="url(#paint5_linear_97_2963)" stroke-width="0.5"/>
<path d="M252.5 1H244.5L212.5 40.5H221L252.5 1Z" stroke="url(#paint6_linear_97_2963)" stroke-width="0.5"/>
<path d="M263.5 1H255.5L223.5 40.5H232L263.5 1Z" stroke="url(#paint7_linear_97_2963)" stroke-width="0.5"/>
<path d="M274.5 1H266.5L234.5 40.5H243L274.5 1Z" stroke="url(#paint8_linear_97_2963)" stroke-width="0.5"/>
<path d="M285.5 1H277.5L245.5 40.5H254L285.5 1Z" stroke="url(#paint9_linear_97_2963)" stroke-width="0.5"/>
<path d="M296.5 1H288.5L256.5 40.5H265L296.5 1Z" stroke="url(#paint10_linear_97_2963)" stroke-width="0.5"/>
<path d="M307.5 1H299.5L267.5 40.5H276L307.5 1Z" stroke="url(#paint11_linear_97_2963)" stroke-width="0.5"/>
<path d="M318.5 1H310.5L278.5 40.5H287L318.5 1Z" stroke="url(#paint12_linear_97_2963)" stroke-width="0.5"/>
<path d="M329.5 1H321.5L289.5 40.5H298L329.5 1Z" stroke="url(#paint13_linear_97_2963)" stroke-width="0.5"/>
<path d="M340.5 1H332.5L300.5 40.5H309L340.5 1Z" stroke="url(#paint14_linear_97_2963)" stroke-width="0.5"/>
<path d="M351.5 1H343.5L311.5 40.5H320L351.5 1Z" stroke="url(#paint15_linear_97_2963)" stroke-width="0.5"/>
<path d="M362 1H354L322 40.5H330.5L362 1Z" stroke="url(#paint16_linear_97_2963)" stroke-width="0.5"/>
<path d="M372.5 1H364.5L332.5 40.5H341L372.5 1Z" stroke="url(#paint17_linear_97_2963)" stroke-width="0.5"/>
<path d="M383.5 1H375.5L343.5 40.5H352L383.5 1Z" stroke="url(#paint18_linear_97_2963)" stroke-width="0.5"/>
<path d="M395 1H387L355 40.5H363.5L395 1Z" stroke="url(#paint19_linear_97_2963)" stroke-width="0.5"/>

<defs>
<linearGradient id="paint0_linear_97_2963" x1="215.5" y1="1" x2="215.5" y2="40.5" gradientUnits="userSpaceOnUse">
<stop stop-color="#1A83FF"/>
<stop offset="1" stop-color="#12AAFF"/>
</linearGradient>
<linearGradient id="paint1_linear_97_2963" x1="215.5" y1="1" x2="215.5" y2="40.5" gradientUnits="userSpaceOnUse">
<stop stop-color="#1A83FF"/>
<stop offset="1" stop-color="#12AAFF"/>
</linearGradient>
<linearGradient id="paint2_linear_97_2963" x1="215.5" y1="1" x2="215.5" y2="40.5" gradientUnits="userSpaceOnUse">
<stop stop-color="#1A83FF"/>
<stop offset="1" stop-color="#12AAFF"/>
</linearGradient>
<linearGradient id="paint3_linear_97_2963" x1="215.5" y1="1" x2="215.5" y2="40.5" gradientUnits="userSpaceOnUse">
<stop stop-color="#1A83FF"/>
<stop offset="1" stop-color="#12AAFF"/>
</linearGradient>
<linearGradient id="paint4_linear_97_2963" x1="215.5" y1="1" x2="215.5" y2="40.5" gradientUnits="userSpaceOnUse">
<stop stop-color="#1A83FF"/>
<stop offset="1" stop-color="#12AAFF"/>
</linearGradient>
<linearGradient id="paint5_linear_97_2963" x1="215.5" y1="1" x2="215.5" y2="40.5" gradientUnits="userSpaceOnUse">
<stop stop-color="#1A83FF"/>
<stop offset="1" stop-color="#12AAFF"/>
</linearGradient>
<linearGradient id="paint6_linear_97_2963" x1="215.5" y1="1" x2="215.5" y2="40.5" gradientUnits="userSpaceOnUse">
<stop stop-color="#1A83FF"/>
<stop offset="1" stop-color="#12AAFF"/>
</linearGradient>
<linearGradient id="paint7_linear_97_2963" x1="215.5" y1="1" x2="215.5" y2="40.5" gradientUnits="userSpaceOnUse">
<stop stop-color="#1A83FF"/>
<stop offset="1" stop-color="#12AAFF"/>
</linearGradient>
<linearGradient id="paint8_linear_97_2963" x1="215.5" y1="1" x2="215.5" y2="40.5" gradientUnits="userSpaceOnUse">
<stop stop-color="#1A83FF"/>
<stop offset="1" stop-color="#12AAFF"/>
</linearGradient>
<linearGradient id="paint9_linear_97_2963" x1="215.5" y1="1" x2="215.5" y2="40.5" gradientUnits="userSpaceOnUse">
<stop stop-color="#1A83FF"/>
<stop offset="1" stop-color="#12AAFF"/>
</linearGradient>
<linearGradient id="paint10_linear_97_2963" x1="215.5" y1="1" x2="215.5" y2="40.5" gradientUnits="userSpaceOnUse">
<stop stop-color="#1A83FF"/>
<stop offset="1" stop-color="#12AAFF"/>
</linearGradient>
<linearGradient id="paint11_linear_97_2963" x1="215.5" y1="1" x2="215.5" y2="40.5" gradientUnits="userSpaceOnUse">
<stop stop-color="#1A83FF"/>
<stop offset="1" stop-color="#12AAFF"/>
</linearGradient>
<linearGradient id="paint12_linear_97_2963" x1="215.5" y1="1" x2="215.5" y2="40.5" gradientUnits="userSpaceOnUse">
<stop stop-color="#1A83FF"/>
<stop offset="1" stop-color="#12AAFF"/>
</linearGradient>
<linearGradient id="paint13_linear_97_2963" x1="215.5" y1="1" x2="215.5" y2="40.5" gradientUnits="userSpaceOnUse">
<stop stop-color="#1A83FF"/>
<stop offset="1" stop-color="#12AAFF"/>
</linearGradient>
<linearGradient id="paint14_linear_97_2963" x1="215.5" y1="1" x2="215.5" y2="40.5" gradientUnits="userSpaceOnUse">
<stop stop-color="#1A83FF"/>
<stop offset="1" stop-color="#12AAFF"/>
</linearGradient>
<linearGradient id="paint15_linear_97_2963" x1="215.5" y1="1" x2="215.5" y2="40.5" gradientUnits="userSpaceOnUse">
<stop stop-color="#1A83FF"/>
<stop offset="1" stop-color="#12AAFF"/>
</linearGradient>
<linearGradient id="paint16_linear_97_2963" x1="215.5" y1="1" x2="215.5" y2="40.5" gradientUnits="userSpaceOnUse">
<stop stop-color="#1A83FF"/>
<stop offset="1" stop-color="#12AAFF"/>
</linearGradient>
<linearGradient id="paint17_linear_97_2963" x1="215.5" y1="1" x2="215.5" y2="40.5" gradientUnits="userSpaceOnUse">
<stop stop-color="#1A83FF"/>
<stop offset="1" stop-color="#12AAFF"/>
</linearGradient>
<linearGradient id="paint18_linear_97_2963" x1="215.5" y1="1" x2="215.5" y2="40.5" gradientUnits="userSpaceOnUse">
<stop stop-color="#1A83FF"/>
<stop offset="1" stop-color="#12AAFF"/>
</linearGradient>
<linearGradient id="paint19_linear_97_2963" x1="215.5" y1="1" x2="215.5" y2="40.5" gradientUnits="userSpaceOnUse">
<stop stop-color="#1A83FF"/>
<stop offset="1" stop-color="#12AAFF"/>
</linearGradient>



</defs>
</svg>
