<svg width="56" height="56" viewBox="0 0 56 56" fill="none" xmlns="http://www.w3.org/2000/svg">
<g clip-path="url(#clip0_1_228)">
<path d="M36.7085 50.3153C36.1416 50.3153 35.6804 49.8542 35.6804 49.2873C35.6804 48.7204 36.1416 48.2592 36.7085 48.2592C36.74 48.2592 36.7709 48.2576 36.8015 48.2545C37.792 48.2056 38.5833 47.3868 38.5833 46.3844V23.7274C38.5833 22.651 38.4762 21.5696 38.265 20.5134L37.7535 17.9564C37.6287 17.3325 37.1979 16.8325 36.6378 16.5968C36.5417 12.8908 35.7534 8.97185 34.4874 5.97337C32.8611 2.12135 30.5572 0 28.0001 0C25.443 0 23.1391 2.12135 21.5127 5.97337C20.2467 8.97185 19.4583 12.8908 19.3623 16.5968C18.8022 16.8325 18.3714 17.3327 18.2465 17.9564L17.735 20.5134C17.5239 21.5696 17.4168 22.651 17.4168 23.7274V46.3844C17.4168 47.3868 18.2081 48.2056 19.1985 48.2545C19.2291 48.2576 19.2601 48.2592 19.2916 48.2592C19.8584 48.2592 20.3196 48.7204 20.3196 49.2873C20.3196 49.8542 19.8584 50.3153 19.2916 50.3153C17.7243 50.3153 16.4492 51.5904 16.4492 53.1577C16.4492 54.7249 17.7243 56 19.2916 56H36.7084C38.2757 56 39.5507 54.7249 39.5507 53.1577C39.5507 51.5904 38.2758 50.3153 36.7085 50.3153ZM23.1841 6.67912C23.9512 4.8622 25.5969 1.81425 28.0001 1.81425C31.7508 1.81425 34.5918 9.35998 34.8187 16.4492H21.1831C21.2944 13.0196 22.0235 9.42796 23.1841 6.67912ZM19.2312 23.7274C19.2312 22.7701 19.3264 21.8084 19.5142 20.8691L20.0257 18.3121C20.0314 18.2839 20.0563 18.2635 20.085 18.2635H35.9153C35.944 18.2635 35.9689 18.2839 35.9746 18.3121L36.4861 20.8691C36.6739 21.8084 36.7691 22.7701 36.7691 23.7274V46.3844C36.7691 46.4177 36.7419 46.4449 36.7086 46.4449H19.2918C19.2585 46.4449 19.2313 46.4177 19.2313 46.3844L19.2312 23.7274ZM21.9408 48.2592H34.0595C33.9352 48.5782 33.8663 48.9248 33.8663 49.2873C33.8663 49.6497 33.9352 49.9963 34.0595 50.3153H21.9408C22.0651 49.9963 22.134 49.6497 22.134 49.2873C22.134 48.9248 22.0651 48.5782 21.9408 48.2592ZM36.7085 54.1857H19.2917C18.7248 54.1857 18.2636 53.7246 18.2636 53.1577C18.2636 52.5908 18.7248 52.1296 19.2917 52.1296H36.7085C37.2754 52.1296 37.7366 52.5908 37.7366 53.1577C37.7366 53.7246 37.2754 54.1857 36.7085 54.1857Z" fill="#B4B491"/>
<path d="M36.7085 54.1857H19.2917C18.7248 54.1857 18.2636 53.7246 18.2636 53.1577C18.2636 52.5908 18.7248 52.1296 19.2917 52.1296H36.7085C37.2754 52.1296 37.7366 52.5908 37.7366 53.1577C37.7366 53.7246 37.2754 54.1857 36.7085 54.1857Z" fill="#B4B491"/>
<path d="M21.9408 48.2592H34.0595C33.9352 48.5782 33.8663 48.9248 33.8663 49.2873C33.8663 49.6497 33.9352 49.9963 34.0595 50.3153H21.9408C22.0651 49.9963 22.134 49.6497 22.134 49.2873C22.134 48.9248 22.0651 48.5782 21.9408 48.2592Z" fill="#B4B491"/>
<path d="M19.2312 23.7274C19.2312 22.7701 19.3264 21.8084 19.5142 20.8691L20.0257 18.3121C20.0314 18.2839 20.0563 18.2635 20.085 18.2635H35.9153C35.944 18.2635 35.9689 18.2839 35.9746 18.3121L36.4861 20.8691C36.6739 21.8084 36.7691 22.7701 36.7691 23.7274V46.3844C36.7691 46.4177 36.7419 46.4449 36.7086 46.4449H19.2918C19.2585 46.4449 19.2313 46.4177 19.2313 46.3844L19.2312 23.7274Z" fill="#B4B491"/>
<path d="M23.1841 6.67912C23.9512 4.8622 25.5969 1.81425 28.0001 1.81425C31.7508 1.81425 34.5918 9.35998 34.8187 16.4492H21.1831C21.2944 13.0196 22.0235 9.42796 23.1841 6.67912Z" fill="#B4B491"/>
</g>
<defs>
<clipPath id="clip0_1_228">
<rect width="56" height="56" fill="white"/>
</clipPath>
</defs>
</svg>
